<?xml version="1.0" encoding="UTF-8" standalone="no" ?>
<!DOCTYPE svg PUBLIC "-//W3C//DTD SVG 1.1//EN" "http://www.w3.org/Graphics/SVG/1.1/DTD/svg11.dtd">
<svg xmlns="http://www.w3.org/2000/svg" xmlns:xlink="http://www.w3.org/1999/xlink" version="1.1" width="1280" height="1024" viewBox="0 0 1280 1024" xml:space="preserve">
<desc>Created with Fabric.js 5.3.0</desc>
<defs>
</defs>
<g transform="matrix(1 0 0 1 640 512)" id="background-logo"  >
<rect style="stroke: none; stroke-width: 0; stroke-dasharray: none; stroke-linecap: butt; stroke-dashoffset: 0; stroke-linejoin: miter; stroke-miterlimit: 4; fill: rgb(223,109,109); fill-rule: nonzero; opacity: 1;"  paint-order="stroke"  x="-640" y="-512" rx="0" ry="0" width="1280" height="1024" />
</g>
<g transform="matrix(1.9078133285396257 0 0 1.9078133285396257 640 411.17324750962)" id="logo-logo"  >
<g style=""  paint-order="stroke"   >
		<g transform="matrix(1.0933522524432213 0 0 1.0933522524432218 0 0)"  >
<g style=""  paint-order="stroke"   >
		<g transform="matrix(1 0 0 1 0 0)"  >
<path style="stroke: none; stroke-width: 1; stroke-dasharray: none; stroke-linecap: butt; stroke-dashoffset: 0; stroke-linejoin: miter; stroke-miterlimit: 4; fill: rgb(255,218,185); fill-rule: nonzero; opacity: 1;"  paint-order="stroke"  transform=" translate(-100, -100)" d="M 200 100 C 200 155.22847498307934 155.22847498307934 200 100 200 C 44.771525016920656 200 0 155.22847498307934 0 100 C 0 44.771525016920656 44.771525016920656 0 100 0 C 155.22847498307934 0 200 44.77152501692063 200 99.99999999999997 Z" stroke-linecap="round" />
</g>
</g>
</g>
		<g transform="matrix(1.0430882029884918 0 0 1.0430882029884918 0 2.842171e-14)"  >
<g style=""  paint-order="stroke"   >
		<g transform="matrix(1 0 0 1 0 0)"  >
<path style="stroke: none; stroke-width: 1; stroke-dasharray: none; stroke-linecap: butt; stroke-dashoffset: 0; stroke-linejoin: miter; stroke-miterlimit: 4; fill: rgb(244,151,142); fill-rule: nonzero; opacity: 1;"  paint-order="stroke"  transform=" translate(-100, -100)" d="M 200 100 C 200 155.22847498307934 155.22847498307934 200 100 200 C 44.771525016920656 200 0 155.22847498307934 0 100 C 0 44.771525016920656 44.771525016920656 0 100 0 C 155.22847498307934 0 200 44.77152501692063 200 99.99999999999997 Z" stroke-linecap="round" />
</g>
</g>
</g>
		<g transform="matrix(0.9642014529184666 0 0 0.9642014529184664 0 2.842171e-14)"  >
<g style=""  paint-order="stroke"   >
		<g transform="matrix(1 0 0 1 0 0)"  >
<path style="stroke: none; stroke-width: 1; stroke-dasharray: none; stroke-linecap: butt; stroke-dashoffset: 0; stroke-linejoin: miter; stroke-miterlimit: 4; fill: rgb(248,173,157); fill-rule: nonzero; opacity: 1;"  paint-order="stroke"  transform=" translate(-100, -100)" d="M 200 100 C 200 155.22847498307934 155.22847498307934 200 100 200 C 44.771525016920656 200 0 155.22847498307934 0 100 C 0 44.771525016920656 44.771525016920656 0 100 0 C 155.22847498307934 0 200 44.77152501692063 200 99.99999999999997 Z" stroke-linecap="round" />
</g>
</g>
</g>
		<g transform="matrix(0.8868513285216003 0 0 0.8868513285216003 0 2.842171e-14)"  >
<g style=""  paint-order="stroke"   >
		<g transform="matrix(1 0 0 1 0 0)"  >
<path style="stroke: none; stroke-width: 1; stroke-dasharray: none; stroke-linecap: butt; stroke-dashoffset: 0; stroke-linejoin: miter; stroke-miterlimit: 4; fill: rgb(251,196,171); fill-rule: nonzero; opacity: 1;"  paint-order="stroke"  transform=" translate(-100, -100)" d="M 200 100 C 200 155.22847498307934 155.22847498307934 200 100 200 C 44.771525016920656 200 0 155.22847498307934 0 100 C 0 44.771525016920656 44.771525016920656 0 100 0 C 155.22847498307934 0 200 44.77152501692063 200 99.99999999999997 Z" stroke-linecap="round" />
</g>
</g>
</g>
		<g transform="matrix(0.809502986750199 0 0 0.809502986750199 0 2.842171e-14)"  >
<g style=""  paint-order="stroke"   >
		<g transform="matrix(1 0 0 1 0 0)"  >
<path style="stroke: none; stroke-width: 1; stroke-dasharray: none; stroke-linecap: butt; stroke-dashoffset: 0; stroke-linejoin: miter; stroke-miterlimit: 4; fill: rgb(255,218,185); fill-rule: nonzero; opacity: 1;"  paint-order="stroke"  transform=" translate(-100, -100)" d="M 200 100 C 200 155.22847498307934 155.22847498307934 200 100 200 C 44.771525016920656 200 0 155.22847498307934 0 100 C 0 44.771525016920656 44.771525016920656 0 100 0 C 155.22847498307934 0 200 44.77152501692063 200 99.99999999999997 Z" stroke-linecap="round" />
</g>
</g>
</g>
		<g transform="matrix(0.709830039452771 0 0 0.709830039452771 0 0)"  >
<g style=""  paint-order="stroke"   >
		<g transform="matrix(1 0 0 1 0 0)"  >
<path style="stroke: none; stroke-width: 1; stroke-dasharray: none; stroke-linecap: butt; stroke-dashoffset: 0; stroke-linejoin: miter; stroke-miterlimit: 4; fill: rgb(240,128,128); fill-rule: nonzero; opacity: 1;"  paint-order="stroke"  transform=" translate(-100, -100)" d="M 200 100 C 200 155.22847498307934 155.22847498307934 200 100 200 C 44.771525016920656 200 0 155.22847498307934 0 100 C 0 44.771525016920656 44.771525016920656 0 100 0 C 155.22847498307934 0 200 44.77152501692063 200 99.99999999999997 Z" stroke-linecap="round" />
</g>
</g>
</g>
		<g transform="matrix(0.8232446650802521 0 0 0.8232446650802516 0 -0.33214073076831596)"  >
<g style=""  paint-order="stroke"   >
		<g transform="matrix(1 0 0 1 0 0)"  >
<path style="stroke: none; stroke-width: 1; stroke-dasharray: none; stroke-linecap: butt; stroke-dashoffset: 0; stroke-linejoin: miter; stroke-miterlimit: 4; fill: rgb(255,218,185); fill-rule: nonzero; opacity: 1;"  paint-order="stroke"  transform=" translate(-100, -100)" d="M 200 100 C 200 155.22847498307934 155.22847498307934 200 100 200 C 44.771525016920656 200 0 155.22847498307934 0 100 C 0 44.771525016920656 44.771525016920656 0 100 0 C 155.22847498307934 0 200 44.77152501692063 200 99.99999999999997 Z" stroke-linecap="round" />
</g>
</g>
</g>
		<g transform="matrix(0.7095160848772732 0 0 0.7095160848772729 0.3134299641041025 -0.4505046073030883)"  >
<g style=""  paint-order="stroke"   >
		<g transform="matrix(1 0 0 1 0 0)"  >
<path style="stroke: none; stroke-width: 1; stroke-dasharray: none; stroke-linecap: butt; stroke-dashoffset: 0; stroke-linejoin: miter; stroke-miterlimit: 4; fill: rgb(244,151,142); fill-rule: nonzero; opacity: 1;"  paint-order="stroke"  transform=" translate(-100, -100)" d="M 200 100 C 200 155.22847498307934 155.22847498307934 200 100 200 C 44.771525016920656 200 0 155.22847498307934 0 100 C 0 44.771525016920656 44.771525016920656 0 100 0 C 155.22847498307934 0 200 44.77152501692063 200 99.99999999999997 Z" stroke-linecap="round" />
</g>
</g>
</g>
		<g transform="matrix(0.5723075233249263 0 0 0.5723075233249262 1.1602432482189329 -0.33214073076831596)"  >
<g style=""  paint-order="stroke"   >
		<g transform="matrix(1 0 0 1 0 0)"  >
<path style="stroke: none; stroke-width: 1; stroke-dasharray: none; stroke-linecap: butt; stroke-dashoffset: 0; stroke-linejoin: miter; stroke-miterlimit: 4; fill: rgb(248,173,157); fill-rule: nonzero; opacity: 1;"  paint-order="stroke"  transform=" translate(-100, -100)" d="M 200 100 C 200 155.22847498307934 155.22847498307934 200 100 200 C 44.771525016920656 200 0 155.22847498307934 0 100 C 0 44.771525016920656 44.771525016920656 0 100 0 C 155.22847498307934 0 200 44.77152501692063 200 99.99999999999997 Z" stroke-linecap="round" />
</g>
</g>
</g>
</g>
</g>
<g transform="matrix(1.9211538461538462 0 0 1.9211538461538462 641.3283001595416 711.9641318686538)" id="text-logo"  >
<g style=""  paint-order="stroke"   >
		<g transform="matrix(1 0 0 1 0 0)" id="text-logo-path-0"  >
<path style="stroke: rgb(255,255,255); stroke-width: 0; stroke-dasharray: none; stroke-linecap: butt; stroke-dashoffset: 0; stroke-linejoin: miter; stroke-miterlimit: 4; fill: rgb(255,255,255); fill-rule: nonzero; opacity: 1;"  paint-order="stroke"  transform=" translate(-184.845, 20.650000000000002)" d="M 23.66 0.94 C 30.56 0.94 36.34 -1.65 40.18 -6.14 L 33.1 -12.27 C 30.92 -9.5 27.61 -7.91 23.66 -7.91 C 16.52 -7.91 11.51 -13.16 11.51 -20.65 C 11.51 -28.08 16.52 -33.39 23.66 -33.39 C 27.08 -33.39 30.03 -32.16 32.21 -30.09 L 38.41 -36.99 C 34.63 -40.36 29.56 -42.24 23.66 -42.24 C 10.97 -42.24 2.06 -33.45 2.06 -20.71 C 2.06 -8.02 10.97 0.94 23.66 0.94 Z M 66.26 -41.3 L 56.82 -41.3 L 56.82 0 L 66.26 0 Z M 103.78 -41.3 L 85.67 -41.3 L 85.67 0 L 95.11 0 L 95.11 -15.1 L 99.47 -15.1 L 107.44 0 L 117.47 0 L 109.09 -15.93 C 114.22 -17.64 117.47 -22.07 117.47 -28.2 C 117.47 -36.23 111.86 -41.3 103.78 -41.3 Z M 108.03 -28.2 C 108.03 -25.49 106.2 -23.95 103.66 -23.95 L 95.11 -23.95 L 95.11 -32.45 L 103.66 -32.45 C 106.2 -32.45 108.03 -30.86 108.03 -28.2 Z M 155.17 0.94 C 162.07 0.94 167.85 -1.65 171.69 -6.14 L 164.61 -12.27 C 162.43 -9.5 159.12 -7.91 155.17 -7.91 C 148.03 -7.91 143.02 -13.16 143.02 -20.65 C 143.02 -28.08 148.03 -33.39 155.17 -33.39 C 158.59 -33.39 161.54 -32.16 163.72 -30.09 L 169.92 -36.99 C 166.14 -40.36 161.07 -42.24 155.17 -42.24 C 142.48 -42.24 133.58 -33.45 133.58 -20.71 C 133.58 -8.02 142.48 0.94 155.17 0.94 Z M 197.77 -41.3 L 188.33 -41.3 L 188.33 0 L 218 0 L 218 -8.85 L 197.77 -8.85 Z M 264.08 -41.3 L 234.41 -41.3 L 234.41 0 L 264.08 0 L 264.08 -8.85 L 243.85 -8.85 L 243.85 -17.11 L 260.54 -17.11 L 260.54 -25.96 L 243.85 -25.96 L 243.85 -32.45 L 264.08 -32.45 Z M 307.57 -41.3 L 307.57 -16.58 C 307.57 -11.51 304.2 -7.91 299.31 -7.91 C 294.47 -7.91 291.05 -11.51 291.05 -16.58 L 291.05 -41.3 L 281.61 -41.3 L 281.61 -16.82 C 281.61 -6.37 288.92 0.94 299.31 0.94 C 309.75 0.94 317.01 -6.37 317.01 -16.82 L 317.01 -41.3 Z M 353.94 -41.3 L 335.83 -41.3 L 335.83 0 L 345.27 0 L 345.27 -15.1 L 353.94 -15.1 C 362.02 -15.1 367.63 -20.12 367.63 -28.2 C 367.63 -36.23 362.02 -41.3 353.94 -41.3 Z M 358.19 -28.2 C 358.19 -25.49 356.36 -23.95 353.82 -23.95 L 345.27 -23.95 L 345.27 -32.45 L 353.82 -32.45 C 356.36 -32.45 358.19 -30.86 358.19 -28.2 Z" stroke-linecap="round" />
</g>
</g>
</g>
<g transform="matrix(1.9211538461538462 0 0 1.9211538461538462 641.9621174171642 405.89121865109587)" id="tagline-dd88bd0c-c068-4d2a-ac16-5350a81b76ae-logo"  >
<g style=""  paint-order="stroke"   >
		<g transform="matrix(1 0 0 1 0 0)" id="tagline-dd88bd0c-c068-4d2a-ac16-5350a81b76ae-logo-path-0"  >
<filter id="SVGID_200777" y="-20%" height="140%" x="-32.82248916245571%" width="165.64497832491142%" >
	<feGaussianBlur in="SourceAlpha" stdDeviation="0"></feGaussianBlur>
	<feOffset dx="2.9466080095323233" dy="0" result="oBlur" ></feOffset>
	<feFlood flood-color="rgb(223,109,109)" flood-opacity="1"/>
	<feComposite in2="oBlur" operator="in" />
	<feMerge>
		<feMergeNode></feMergeNode>
		<feMergeNode in="SourceGraphic"></feMergeNode>
	</feMerge>
</filter>
<path style="stroke: rgb(223,109,109); stroke-width: 10.799172991632032; stroke-dasharray: none; stroke-linecap: butt; stroke-dashoffset: 0; stroke-linejoin: miter; stroke-miterlimit: 4; fill: rgb(255,255,255); fill-rule: nonzero; opacity: 1;filter: url(#SVGID_200777);"  paint-order="stroke"  transform=" translate(-16.04, 23.810000000000002)" d="M 4.55 -12.45 C 4.55 -4.35 10.39 0.66 17.2 0.66 C 18.49 0.66 20.49 0.27 22.05 -0.27 L 27.53 -2.26 L 26.03 -6.11 C 19.76 -3.62 18.69 -3.12 17.2 -3.12 C 12.48 -3.29 8.23 -6.97 8.23 -12.78 L 8.37 -34.4 C 8.37 -39.68 12.55 -44.59 17.4 -44.59 C 18.33 -44.59 19.36 -44.29 20.25 -43.93 L 26.16 -41.6 L 27.39 -45.16 L 22.11 -47.25 C 20.65 -47.75 18.63 -48.28 17.33 -48.28 C 15.57 -48.28 14.21 -48.08 13.31 -47.65 C 12.42 -47.21 11.72 -46.88 11.29 -46.65 C 10.19 -46.02 9.36 -45.36 7.74 -43.53 C 6.94 -42.67 6.21 -41.4 5.54 -39.74 C 4.88 -38.08 4.55 -36.29 4.55 -34.4 L 4.55 -13.12 Z" stroke-linecap="round" />
</g>
</g>
</g>
<g transform="matrix(1.9211538461538462 0 0 1.9211538461538462 650.3838365384617 796.02237349038)" id="tagline-870a2bde-ceb2-4bf6-b040-cb9b96dd00a2-logo"  >
<g style=""  paint-order="stroke"   >
		<g transform="matrix(1 0 0 1 0 0)" id="tagline-870a2bde-ceb2-4bf6-b040-cb9b96dd00a2-logo-path-0"  >
<path style="stroke: rgb(255,255,255); stroke-width: 0; stroke-dasharray: none; stroke-linecap: butt; stroke-dashoffset: 0; stroke-linejoin: miter; stroke-miterlimit: 4; fill: rgb(255,255,255); fill-rule: nonzero; opacity: 1;"  paint-order="stroke"  transform=" translate(-254.63, 7.7)" d="M 2.42 -0.7 L 2.42 -6.93 L 8.47 -6.93 C 8.89 -6.93 9.24 -7.28 9.24 -7.7 C 9.22 -8.14 8.89 -8.47 8.47 -8.47 L 2.42 -8.47 L 2.42 -13.86 L 10.01 -13.86 C 10.43 -13.86 10.78 -14.21 10.78 -14.63 C 10.76 -15.07 10.43 -15.4 10.01 -15.4 L 1.76 -15.4 C 1.28 -15.4 0.88 -15 0.88 -14.52 L 0.88 -0.7 C 0.88 -0.26 1.23 0.07 1.65 0.07 C 2.09 0.09 2.42 -0.26 2.42 -0.7 Z M 24.35 -0.7 L 24.35 -6.23 L 28.07 -6.23 L 28.14 -6.23 L 31.02 -0.42 C 31.13 -0.2 31.42 0 31.7 0 C 32.12 0 32.47 -0.35 32.47 -0.77 C 32.47 -0.88 32.43 -1.03 32.38 -1.12 L 29.7 -6.53 C 31.42 -7.22 32.63 -8.89 32.63 -10.85 C 32.63 -13.33 30.56 -15.4 28.07 -15.4 L 23.69 -15.4 C 23.21 -15.4 22.81 -15 22.81 -14.52 L 22.81 -0.7 C 22.81 -0.26 23.17 0.07 23.58 0.07 C 24.02 0.09 24.35 -0.26 24.35 -0.7 Z M 24.35 -7.77 L 24.35 -13.86 L 28.07 -13.86 C 29.72 -13.86 31.09 -12.5 31.09 -10.85 C 31.09 -9.15 29.72 -7.77 28.07 -7.77 Z M 52.6 -1.54 C 49.15 -1.54 46.42 -4.27 46.42 -7.72 C 46.42 -11.13 49.15 -13.86 52.6 -13.86 C 55.99 -13.86 58.74 -11.13 58.74 -7.72 C 58.74 -4.27 55.99 -1.54 52.6 -1.54 Z M 52.6 0 C 56.83 0 60.28 -3.43 60.28 -7.72 C 60.28 -11.97 56.83 -15.4 52.6 -15.4 C 48.31 -15.4 44.88 -11.97 44.88 -7.72 C 44.88 -3.43 48.31 0 52.6 0 Z M 85.95 -0.7 L 85.95 -14.48 C 85.95 -15.47 84.63 -15.77 84.17 -14.96 L 79.13 -6.67 L 74.1 -14.96 C 73.63 -15.77 72.31 -15.47 72.31 -14.48 L 72.31 -0.7 C 72.31 -0.26 72.67 0.07 73.08 0.07 C 73.52 0.09 73.85 -0.26 73.85 -0.7 L 73.85 -12.39 L 78.36 -4.97 C 78.69 -4.36 79.57 -4.38 79.9 -4.97 L 84.41 -12.39 L 84.41 -0.7 C 84.41 -0.26 84.77 0.07 85.18 0.07 C 85.62 0.09 85.95 -0.26 85.95 -0.7 Z M 126.3 -0.7 L 126.3 -14.48 C 126.3 -15.47 124.98 -15.77 124.52 -14.96 L 119.48 -6.67 L 114.44 -14.96 C 113.98 -15.77 112.66 -15.47 112.66 -14.48 L 112.66 -0.7 C 112.66 -0.26 113.01 0.07 113.43 0.07 C 113.87 0.09 114.2 -0.26 114.2 -0.7 L 114.2 -12.39 L 118.71 -4.97 C 119.04 -4.36 119.92 -4.38 120.25 -4.97 L 124.76 -12.39 L 124.76 -0.7 C 124.76 -0.26 125.11 0.07 125.53 0.07 C 125.97 0.09 126.3 -0.26 126.3 -0.7 Z M 146.28 -1.54 C 142.82 -1.54 140.1 -4.27 140.1 -7.72 C 140.1 -11.13 142.82 -13.86 146.28 -13.86 C 149.67 -13.86 152.42 -11.13 152.42 -7.72 C 152.42 -4.27 149.67 -1.54 146.28 -1.54 Z M 146.28 0 C 150.5 0 153.96 -3.43 153.96 -7.72 C 153.96 -11.97 150.5 -15.4 146.28 -15.4 C 141.99 -15.4 138.56 -11.97 138.56 -7.72 C 138.56 -3.43 141.99 0 146.28 0 Z M 179.63 -0.7 L 179.63 -14.48 C 179.63 -15.47 178.31 -15.77 177.85 -14.96 L 172.81 -6.67 L 167.77 -14.96 C 167.31 -15.77 165.99 -15.47 165.99 -14.48 L 165.99 -0.7 C 165.99 -0.26 166.34 0.07 166.76 0.07 C 167.2 0.09 167.53 -0.26 167.53 -0.7 L 167.53 -12.39 L 172.04 -4.97 C 172.37 -4.36 173.25 -4.38 173.58 -4.97 L 178.09 -12.39 L 178.09 -0.7 C 178.09 -0.26 178.44 0.07 178.86 0.07 C 179.3 0.09 179.63 -0.26 179.63 -0.7 Z M 200.79 -1.54 L 193.2 -1.54 L 193.2 -6.93 L 199.25 -6.93 C 199.67 -6.93 200.02 -7.28 200.02 -7.7 C 200 -8.14 199.67 -8.47 199.25 -8.47 L 193.2 -8.47 L 193.2 -13.86 L 200.79 -13.86 C 201.21 -13.86 201.56 -14.21 201.56 -14.63 C 201.54 -15.07 201.21 -15.4 200.79 -15.4 L 192.54 -15.4 C 192.06 -15.4 191.66 -15 191.66 -14.52 L 191.66 -0.88 C 191.66 -0.4 192.06 0 192.54 0 L 200.79 0 C 201.21 0 201.56 -0.35 201.56 -0.77 C 201.54 -1.21 201.21 -1.54 200.79 -1.54 Z M 215.14 -0.7 L 215.09 -12.58 L 224.2 -0.37 C 224.77 0.35 225.92 -0.04 225.92 -0.95 L 225.92 -14.72 C 225.92 -15.14 225.57 -15.49 225.15 -15.49 C 224.71 -15.47 224.38 -15.14 224.38 -14.72 L 224.38 -2.71 L 215.16 -15.07 C 214.63 -15.77 213.55 -15.33 213.55 -14.48 L 213.6 -0.68 C 213.6 -0.29 213.95 0.09 214.37 0.09 C 214.76 0.09 215.14 -0.29 215.14 -0.7 Z M 244.2 -0.7 L 244.2 -13.86 L 248.14 -13.86 C 248.56 -13.86 248.91 -14.21 248.91 -14.63 C 248.89 -15.07 248.56 -15.4 248.14 -15.4 L 238.72 -15.4 C 238.28 -15.4 237.95 -15.05 237.95 -14.63 C 237.93 -14.19 238.28 -13.86 238.72 -13.86 L 242.66 -13.86 L 242.66 -0.7 C 242.66 -0.26 243.01 0.07 243.43 0.07 C 243.87 0.09 244.2 -0.26 244.2 -0.7 Z M 261.07 -2.05 C 261.95 -0.79 263.49 0 265.23 0 C 267.92 0 270.16 -2 270.16 -4.53 C 270.16 -7.52 267.83 -8.36 266.09 -9.02 C 264.4 -9.64 262.81 -10.1 262.81 -11.57 C 262.81 -12.8 263.96 -13.86 265.47 -13.86 C 266.46 -13.86 267.3 -13.42 267.78 -12.76 C 267.92 -12.56 268.14 -12.43 268.4 -12.43 C 268.82 -12.43 269.17 -12.78 269.17 -13.2 C 269.17 -13.38 269.1 -13.53 269.02 -13.64 C 268.27 -14.7 266.95 -15.4 265.47 -15.4 C 263.16 -15.4 261.27 -13.68 261.27 -11.57 C 261.27 -8.93 263.87 -8.18 265.56 -7.57 C 267.3 -6.91 268.62 -6.42 268.62 -4.53 C 268.62 -2.88 267.12 -1.54 265.23 -1.54 C 263.98 -1.54 262.92 -2.11 262.35 -2.93 C 262.22 -3.1 261.98 -3.26 261.71 -3.26 C 261.29 -3.26 260.94 -2.9 260.94 -2.49 C 260.94 -2.33 260.99 -2.18 261.07 -2.05 Z M 303.12 -0.7 L 303.12 -13.86 L 307.05 -13.86 C 307.47 -13.86 307.82 -14.21 307.82 -14.63 C 307.8 -15.07 307.47 -15.4 307.05 -15.4 L 297.64 -15.4 C 297.2 -15.4 296.87 -15.05 296.87 -14.63 C 296.85 -14.19 297.2 -13.86 297.64 -13.86 L 301.58 -13.86 L 301.58 -0.7 C 301.58 -0.26 301.93 0.07 302.35 0.07 C 302.79 0.09 303.12 -0.26 303.12 -0.7 Z M 327.8 -1.54 C 324.35 -1.54 321.62 -4.27 321.62 -7.72 C 321.62 -11.13 324.35 -13.86 327.8 -13.86 C 331.19 -13.86 333.94 -11.13 333.94 -7.72 C 333.94 -4.27 331.19 -1.54 327.8 -1.54 Z M 327.8 0 C 332.02 0 335.48 -3.43 335.48 -7.72 C 335.48 -11.97 332.02 -15.4 327.8 -15.4 C 323.51 -15.4 320.08 -11.97 320.08 -7.72 C 320.08 -3.43 323.51 0 327.8 0 Z M 375.83 -0.7 L 375.83 -14.48 C 375.83 -15.47 374.51 -15.77 374.04 -14.96 L 369.01 -6.67 L 363.97 -14.96 C 363.51 -15.77 362.19 -15.47 362.19 -14.48 L 362.19 -0.7 C 362.19 -0.26 362.54 0.07 362.96 0.07 C 363.4 0.09 363.73 -0.26 363.73 -0.7 L 363.73 -12.39 L 368.24 -4.97 C 368.57 -4.36 369.45 -4.38 369.78 -4.97 L 374.29 -12.39 L 374.29 -0.7 C 374.29 -0.26 374.64 0.07 375.06 0.07 C 375.5 0.09 375.83 -0.26 375.83 -0.7 Z M 396.99 -1.54 L 389.4 -1.54 L 389.4 -6.93 L 395.45 -6.93 C 395.87 -6.93 396.22 -7.28 396.22 -7.7 C 396.2 -8.14 395.87 -8.47 395.45 -8.47 L 389.4 -8.47 L 389.4 -13.86 L 396.99 -13.86 C 397.41 -13.86 397.76 -14.21 397.76 -14.63 C 397.74 -15.07 397.41 -15.4 396.99 -15.4 L 388.74 -15.4 C 388.26 -15.4 387.86 -15 387.86 -14.52 L 387.86 -0.88 C 387.86 -0.4 388.26 0 388.74 0 L 396.99 0 C 397.41 0 397.76 -0.35 397.76 -0.77 C 397.74 -1.21 397.41 -1.54 396.99 -1.54 Z M 418.92 -1.54 L 411.33 -1.54 L 411.33 -6.93 L 417.38 -6.93 C 417.8 -6.93 418.15 -7.28 418.15 -7.7 C 418.13 -8.14 417.8 -8.47 417.38 -8.47 L 411.33 -8.47 L 411.33 -13.86 L 418.92 -13.86 C 419.34 -13.86 419.69 -14.21 419.69 -14.63 C 419.67 -15.07 419.34 -15.4 418.92 -15.4 L 410.67 -15.4 C 410.19 -15.4 409.79 -15 409.79 -14.52 L 409.79 -0.88 C 409.79 -0.4 410.19 0 410.67 0 L 418.92 0 C 419.34 0 419.69 -0.35 419.69 -0.77 C 419.67 -1.21 419.34 -1.54 418.92 -1.54 Z M 437.98 -0.7 L 437.98 -13.86 L 441.91 -13.86 C 442.33 -13.86 442.68 -14.21 442.68 -14.63 C 442.66 -15.07 442.33 -15.4 441.91 -15.4 L 432.5 -15.4 C 432.06 -15.4 431.73 -15.05 431.73 -14.63 C 431.71 -14.19 432.06 -13.86 432.5 -13.86 L 436.44 -13.86 L 436.44 -0.7 C 436.44 -0.26 436.79 0.07 437.21 0.07 C 437.65 0.09 437.98 -0.26 437.98 -0.7 Z M 463.74 -14.72 L 463.74 -5.3 C 463.74 -3.21 462.04 -1.54 460.02 -1.54 C 457.95 -1.54 456.26 -3.21 456.26 -5.3 L 456.26 -14.72 C 456.26 -15.14 455.91 -15.49 455.49 -15.49 C 455.05 -15.47 454.72 -15.14 454.72 -14.72 L 454.72 -5.3 C 454.72 -2.38 457.12 0 460.02 0 C 462.88 0 465.28 -2.38 465.28 -5.3 L 465.28 -14.72 C 465.28 -15.14 464.93 -15.49 464.51 -15.49 C 464.07 -15.47 463.74 -15.14 463.74 -14.72 Z M 478.85 -0.7 L 478.85 -6.23 L 482.57 -6.23 C 485.06 -6.23 487.12 -8.32 487.12 -10.85 C 487.12 -13.33 485.06 -15.4 482.57 -15.4 L 478.19 -15.4 C 477.71 -15.4 477.31 -15 477.31 -14.52 L 477.31 -0.7 C 477.31 -0.26 477.66 0.07 478.08 0.07 C 478.52 0.09 478.85 -0.26 478.85 -0.7 Z M 478.85 -7.77 L 478.85 -13.86 L 482.57 -13.86 C 484.22 -13.86 485.58 -12.5 485.58 -10.85 C 485.58 -9.15 484.22 -7.77 482.57 -7.77 Z M 499.29 -2.05 C 500.17 -0.79 501.71 0 503.45 0 C 506.13 0 508.38 -2 508.38 -4.53 C 508.38 -7.52 506.04 -8.36 504.31 -9.02 C 502.61 -9.64 501.03 -10.1 501.03 -11.57 C 501.03 -12.8 502.17 -13.86 503.69 -13.86 C 504.68 -13.86 505.52 -13.42 506 -12.76 C 506.13 -12.56 506.35 -12.43 506.62 -12.43 C 507.03 -12.43 507.39 -12.78 507.39 -13.2 C 507.39 -13.38 507.32 -13.53 507.23 -13.64 C 506.48 -14.7 505.16 -15.4 503.69 -15.4 C 501.38 -15.4 499.49 -13.68 499.49 -11.57 C 499.49 -8.93 502.08 -8.18 503.78 -7.57 C 505.52 -6.91 506.84 -6.42 506.84 -4.53 C 506.84 -2.88 505.34 -1.54 503.45 -1.54 C 502.19 -1.54 501.14 -2.11 500.57 -2.93 C 500.43 -3.1 500.19 -3.26 499.93 -3.26 C 499.51 -3.26 499.16 -2.9 499.16 -2.49 C 499.16 -2.33 499.2 -2.18 499.29 -2.05 Z" stroke-linecap="round" />
</g>
</g>
</g>
</svg>